<svg width="109" height="32" viewBox="0 0 109 32" fill="none" xmlns="http://www.w3.org/2000/svg">
<path d="M9.28 22V10.64H13.312C14.5387 10.64 15.5627 10.896 16.384 11.408C17.2053 11.9093 17.8187 12.592 18.224 13.456C18.64 14.3093 18.848 15.2587 18.848 16.304C18.848 17.456 18.6187 18.4587 18.16 19.312C17.712 20.1653 17.072 20.8267 16.24 21.296C15.408 21.7653 14.432 22 13.312 22H9.28ZM17.024 16.304C17.024 15.504 16.8747 14.8 16.576 14.192C16.288 13.5733 15.8667 13.0933 15.312 12.752C14.768 12.4 14.1013 12.224 13.312 12.224H11.072V20.416H13.312C14.112 20.416 14.784 20.2347 15.328 19.872C15.8827 19.5093 16.304 19.0187 16.592 18.4C16.88 17.7813 17.024 17.0827 17.024 16.304ZM28.5251 20.416V22H20.7331V10.64H28.3811V12.224H22.5251V15.456H27.5971V16.944H22.5251V20.416H28.5251ZM31.0938 10.64L34.5178 19.808L37.9258 10.64H39.8298L35.3658 22H33.6698L29.1898 10.64H31.0938ZM49.0095 20.416V22H41.2175V10.64H48.8655V12.224H43.0095V15.456H48.0815V16.944H43.0095V20.416H49.0095ZM50.8581 22V10.64H52.6501V20.416H58.7461V22H50.8581ZM64.6094 22.08C63.788 22.08 63.0467 21.92 62.3854 21.6C61.724 21.28 61.1534 20.848 60.6734 20.304C60.1934 19.7493 59.82 19.1307 59.5534 18.448C59.2974 17.7547 59.1694 17.0453 59.1694 16.32C59.1694 15.5627 59.308 14.8427 59.5854 14.16C59.8627 13.4667 60.2467 12.8533 60.7374 12.32C61.228 11.776 61.804 11.3493 62.4654 11.04C63.1374 10.72 63.8627 10.56 64.6414 10.56C65.452 10.56 66.188 10.7253 66.8494 11.056C67.5214 11.3867 68.092 11.8293 68.5614 12.384C69.0414 12.9387 69.4094 13.5573 69.6654 14.24C69.932 14.9227 70.0654 15.6213 70.0654 16.336C70.0654 17.0933 69.9267 17.8187 69.6494 18.512C69.3827 19.1947 69.004 19.808 68.5134 20.352C68.0227 20.8853 67.4414 21.3067 66.7694 21.616C66.108 21.9253 65.388 22.08 64.6094 22.08ZM60.9934 16.32C60.9934 16.8533 61.0787 17.3707 61.2494 17.872C61.42 18.3733 61.66 18.8213 61.9694 19.216C62.2894 19.6 62.6734 19.904 63.1214 20.128C63.5694 20.352 64.0707 20.464 64.6254 20.464C65.2014 20.464 65.7134 20.3467 66.1614 20.112C66.6094 19.8773 66.9827 19.5627 67.2814 19.168C67.5907 18.7627 67.8254 18.3147 67.9854 17.824C68.1454 17.3227 68.2254 16.8213 68.2254 16.32C68.2254 15.7867 68.14 15.2747 67.9694 14.784C67.8094 14.2827 67.5694 13.84 67.2494 13.456C66.9294 13.0613 66.5454 12.752 66.0974 12.528C65.66 12.304 65.1694 12.192 64.6254 12.192C64.0494 12.192 63.5374 12.3093 63.0894 12.544C62.6414 12.7787 62.2627 13.0933 61.9534 13.488C61.644 13.8827 61.404 14.3253 61.2334 14.816C61.0734 15.3067 60.9934 15.808 60.9934 16.32ZM71.9206 22V10.64H76.6886C77.2006 10.64 77.67 10.7467 78.0966 10.96C78.5233 11.1733 78.8966 11.456 79.2166 11.808C79.5366 12.16 79.782 12.5547 79.9526 12.992C80.1233 13.4293 80.2086 13.8773 80.2086 14.336C80.2086 14.9653 80.0646 15.568 79.7766 16.144C79.4993 16.7093 79.0993 17.168 78.5766 17.52C78.0646 17.872 77.4673 18.048 76.7846 18.048H73.7126V22H71.9206ZM73.7126 16.464H76.6726C77.014 16.464 77.3126 16.3733 77.5686 16.192C77.8246 16 78.022 15.744 78.1606 15.424C78.31 15.104 78.3846 14.7413 78.3846 14.336C78.3846 13.92 78.2993 13.552 78.1286 13.232C77.958 12.912 77.734 12.6667 77.4566 12.496C77.19 12.3147 76.8966 12.224 76.5766 12.224H73.7126V16.464ZM89.6814 20.416V22H81.8894V10.64H89.5374V12.224H83.6814V15.456H88.7534V16.944H83.6814V20.416H89.6814ZM91.53 22V10.64H96.474C96.986 10.64 97.4553 10.7467 97.882 10.96C98.3087 11.1733 98.6767 11.456 98.986 11.808C99.306 12.16 99.5513 12.5547 99.722 12.992C99.9033 13.4293 99.994 13.8773 99.994 14.336C99.994 14.8373 99.9033 15.3173 99.722 15.776C99.5407 16.2347 99.2793 16.6293 98.938 16.96C98.6073 17.2907 98.218 17.5307 97.77 17.68L100.442 22H98.426L95.962 18.048H93.322V22H91.53ZM93.322 16.464H96.458C96.7887 16.464 97.082 16.368 97.338 16.176C97.594 15.984 97.7967 15.728 97.946 15.408C98.0953 15.0773 98.17 14.72 98.17 14.336C98.17 13.9413 98.0847 13.5893 97.914 13.28C97.7433 12.96 97.5193 12.704 97.242 12.512C96.9753 12.32 96.682 12.224 96.362 12.224H93.322V16.464Z" fill="black"/>
<rect x="1" y="1" width="107" height="30" rx="7" stroke="black" stroke-width="2"/>
</svg>
